HIERARCHY
ROOT hips
{
	OFFSET 0.000000 104.274902 0.000000
	CHANNELS 6 Xposition Yposition Zposition Xrotation Yrotation Zrotation
	JOINT spine
	{
		OFFSET 0.000000 10.181549 0.131524
		CHANNELS 6 Xposition Yposition Zposition Xrotation Yrotation Zrotation
		JOINT chest
		{
			OFFSET 0.000000 9.893990 -1.470706
			CHANNELS 3 Xrotation Yrotation Zrotation
			JOINT upperChest
			{
				OFFSET 0.000000 9.220787 -1.370637
				CHANNELS 3 Xrotation Yrotation Zrotation
				JOINT neck
				{
					OFFSET 0.000000 16.740372 -2.049022
					CHANNELS 6 Xposition Yposition Zposition Xrotation Yrotation Zrotation
					JOINT head
					{
						OFFSET 0.000000 9.617859 1.684976
						CHANNELS 6 Xposition Yposition Zposition Xrotation Yrotation Zrotation
						JOINT headEnd
						{
							OFFSET 0.000000 22.037384 7.501072
							CHANNELS 6 Xposition Yposition Zposition Xrotation Yrotation Zrotation
							End Site
							{
								OFFSET 0.000000 23.106567 -2.828246
							}
						}
					}
				}
				JOINT rightShoulder
				{
					OFFSET -4.570000 11.014877 -2.160840
					CHANNELS 6 Xposition Yposition Zposition Xrotation Yrotation Zrotation
					JOINT rightUpperArm
					{
						OFFSET -10.592867 -0.524796 -2.232105
						CHANNELS 3 Xrotation Yrotation Zrotation
						JOINT rightLowerArm
						{
							OFFSET -27.841497 0.000000 -0.000002
							CHANNELS 3 Xrotation Yrotation Zrotation
							JOINT rightHand
							{
								OFFSET -28.328812 0.000000 -0.000001
								CHANNELS 3 Xrotation Yrotation Zrotation
								JOINT rightThumbProximal
								{
									OFFSET -2.464798 -1.573990 2.681911
									CHANNELS 6 Xposition Yposition Zposition Xrotation Yrotation Zrotation
									JOINT rightThumbIntermediate
									{
										OFFSET -3.244781 -1.873383 1.873376
										CHANNELS 3 Xrotation Yrotation Zrotation
										JOINT rightThumbDistal
										{
											OFFSET -2.646263 -1.527817 1.527818
											CHANNELS 6 Xposition Yposition Zposition Xrotation Yrotation Zrotation
											JOINT rightHandThumb4
											{
												OFFSET -1.994591 -1.151581 1.151575
												CHANNELS 6 Xposition Yposition Zposition Xrotation Yrotation Zrotation
												End Site
												{
													OFFSET -1.860176 -1.142715 1.365483
												}
											}
										}
									}
								}
								JOINT rightIndexProximal
								{
									OFFSET -9.108299 -0.517883 2.259803
									CHANNELS 6 Xposition Yposition Zposition Xrotation Yrotation Zrotation
									JOINT rightIndexIntermediate
									{
										OFFSET -3.699997 0.000000 0.000000
										CHANNELS 3 Xrotation Yrotation Zrotation
										JOINT rightIndexDistal
										{
											OFFSET -2.850006 0.000000 0.000000
											CHANNELS 3 Xrotation Yrotation Zrotation
											JOINT rightHandIndex4
											{
												OFFSET -2.772194 0.000000 0.000000
												CHANNELS 3 Xrotation Yrotation Zrotation
												End Site
												{
													OFFSET -2.772202 0.000000 -0.000484
												}
											}
										}
									}
								}
								JOINT rightMiddleProximal
								{
									OFFSET -9.532501 0.000000 -0.000000
									CHANNELS 6 Xposition Yposition Zposition Xrotation Yrotation Zrotation
									JOINT rightMiddleIntermediate
									{
										OFFSET -3.699997 0.000000 0.000000
										CHANNELS 3 Xrotation Yrotation Zrotation
										JOINT rightMiddleDistal
										{
											OFFSET -2.949997 0.000000 0.000000
											CHANNELS 3 Xrotation Yrotation Zrotation
											JOINT rightHandMiddle4
											{
												OFFSET -2.946594 0.000000 0.000000
												CHANNELS 3 Xrotation Yrotation Zrotation
												End Site
												{
													OFFSET -2.946602 0.000000 -0.000982
												}
											}
										}
									}
								}
								JOINT rightRingProximal
								{
									OFFSET -9.103600 -0.043106 -1.865100
									CHANNELS 6 Xposition Yposition Zposition Xrotation Yrotation Zrotation
									JOINT rightRingIntermediate
									{
										OFFSET -3.379303 0.000000 0.000000
										CHANNELS 3 Xrotation Yrotation Zrotation
										JOINT rightRingDistal
										{
											OFFSET -2.889694 0.000000 0.000000
											CHANNELS 3 Xrotation Yrotation Zrotation
											JOINT rightHandRing4
											{
												OFFSET -2.638802 0.000000 0.000000
												CHANNELS 3 Xrotation Yrotation Zrotation
												End Site
												{
													OFFSET -2.638802 0.000000 0.004218
												}
											}
										}
									}
								}
								JOINT rightLittleProximal
								{
									OFFSET -8.076698 -0.486725 -3.806299
									CHANNELS 6 Xposition Yposition Zposition Xrotation Yrotation Zrotation
									JOINT rightLittleIntermediate
									{
										OFFSET -3.600006 0.000000 0.000000
										CHANNELS 3 Xrotation Yrotation Zrotation
										JOINT rightLittleDistal
										{
											OFFSET -2.099998 0.000000 0.000000
											CHANNELS 3 Xrotation Yrotation Zrotation
											JOINT rightHandPinky4
											{
												OFFSET -2.115791 0.000000 0.000000
												CHANNELS 3 Xrotation Yrotation Zrotation
												End Site
												{
													OFFSET -2.115799 0.000000 0.000174
												}
											}
										}
									}
								}
							}
						}
					}
				}
				JOINT leftShoulder
				{
					OFFSET 4.570400 11.014679 -2.160816
					CHANNELS 6 Xposition Yposition Zposition Xrotation Yrotation Zrotation
					JOINT leftUpperArm
					{
						OFFSET 10.592373 -0.524597 -2.232116
						CHANNELS 3 Xrotation Yrotation Zrotation
						JOINT leftLowerArm
						{
							OFFSET 27.841488 0.000000 0.000001
							CHANNELS 3 Xrotation Yrotation Zrotation
							JOINT leftHand
							{
								OFFSET 28.328808 0.000000 -0.000000
								CHANNELS 3 Xrotation Yrotation Zrotation
								JOINT leftThumbProximal
								{
									OFFSET 2.466103 -1.576202 2.681698
									CHANNELS 6 Xposition Yposition Zposition Xrotation Yrotation Zrotation
									JOINT leftThumbIntermediate
									{
										OFFSET 3.243317 -1.872528 1.872530
										CHANNELS 3 Xrotation Yrotation Zrotation
										JOINT leftThumbDistal
										{
											OFFSET 2.647881 -1.528763 1.528754
											CHANNELS 6 Xposition Yposition Zposition Xrotation Yrotation Zrotation
											JOINT leftHandThumb4
											{
												OFFSET 1.998924 -1.154083 1.154080
												CHANNELS 6 Xposition Yposition Zposition Xrotation Yrotation Zrotation
												End Site
												{
													OFFSET 1.884041 -1.149155 1.337651
												}
											}
										}
									}
								}
								JOINT leftIndexProximal
								{
									OFFSET 9.109299 -0.518005 2.259900
									CHANNELS 6 Xposition Yposition Zposition Xrotation Yrotation Zrotation
									JOINT leftIndexIntermediate
									{
										OFFSET 3.699997 0.000000 0.000000
										CHANNELS 3 Xrotation Yrotation Zrotation
										JOINT leftIndexDistal
										{
											OFFSET 2.850006 0.000000 0.000000
											CHANNELS 3 Xrotation Yrotation Zrotation
											JOINT leftHandIndex4
											{
												OFFSET 2.774895 0.000000 0.000000
												CHANNELS 3 Xrotation Yrotation Zrotation
												End Site
												{
													OFFSET 2.774902 0.000000 -0.000072
												}
											}
										}
									}
								}
								JOINT leftMiddleProximal
								{
									OFFSET 9.533401 0.000000 0.000000
									CHANNELS 6 Xposition Yposition Zposition Xrotation Yrotation Zrotation
									JOINT leftMiddleIntermediate
									{
										OFFSET 3.699997 0.000000 0.000000
										CHANNELS 3 Xrotation Yrotation Zrotation
										JOINT leftMiddleDistal
										{
											OFFSET 2.949997 0.000000 0.000000
											CHANNELS 3 Xrotation Yrotation Zrotation
											JOINT leftHandMiddle4
											{
												OFFSET 2.952896 0.000000 0.000000
												CHANNELS 3 Xrotation Yrotation Zrotation
												End Site
												{
													OFFSET 2.952904 0.000000 0.000165
												}
											}
										}
									}
								}
								JOINT leftRingProximal
								{
									OFFSET 9.104500 -0.042999 -1.865101
									CHANNELS 6 Xposition Yposition Zposition Xrotation Yrotation Zrotation
									JOINT leftRingIntermediate
									{
										OFFSET 3.149994 0.000000 0.000000
										CHANNELS 3 Xrotation Yrotation Zrotation
										JOINT leftRingDistal
										{
											OFFSET 2.950005 0.000000 0.000000
											CHANNELS 3 Xrotation Yrotation Zrotation
											JOINT leftHandRing4
											{
												OFFSET 2.644302 0.000000 0.000000
												CHANNELS 3 Xrotation Yrotation Zrotation
												End Site
												{
													OFFSET 2.644302 0.000000 0.000083
												}
											}
										}
									}
								}
								JOINT leftLittleProximal
								{
									OFFSET 8.077805 -0.486893 -3.806302
									CHANNELS 6 Xposition Yposition Zposition Xrotation Yrotation Zrotation
									JOINT leftLittleIntermediate
									{
										OFFSET 3.600006 0.000000 0.000000
										CHANNELS 3 Xrotation Yrotation Zrotation
										JOINT leftLittleDistal
										{
											OFFSET 2.099998 0.000000 0.000000
											CHANNELS 3 Xrotation Yrotation Zrotation
											JOINT leftHandPinky4
											{
												OFFSET 2.125496 0.000000 0.000000
												CHANNELS 3 Xrotation Yrotation Zrotation
												End Site
												{
													OFFSET 2.125504 0.000000 -0.001254
												}
											}
										}
									}
								}
							}
						}
					}
				}
			}
		}
	}
	JOINT rightUpperLeg
	{
		OFFSET -8.207800 -6.751701 -1.599544
		CHANNELS 6 Xposition Yposition Zposition Xrotation Yrotation Zrotation
		JOINT rightLowerLeg
		{
			OFFSET 0.000004 -44.370152 0.345934
			CHANNELS 3 Xrotation Yrotation Zrotation
			JOINT rightFoot
			{
				OFFSET 0.000004 -44.423664 -3.043535
				CHANNELS 3 Xrotation Yrotation Zrotation
				JOINT rightToes
				{
					OFFSET 0.000001 -8.728691 10.710592
					CHANNELS 3 Xrotation Yrotation Zrotation
					JOINT rightToesEnd
					{
						OFFSET 0.000000 -0.000665 9.278101
						CHANNELS 3 Xrotation Yrotation Zrotation
						End Site
						{
							OFFSET 0.000000 -0.000665 9.278103
						}
					}
				}
			}
		}
	}
	JOINT leftUpperLeg
	{
		OFFSET 8.207800 -6.751701 -1.599544
		CHANNELS 6 Xposition Yposition Zposition Xrotation Yrotation Zrotation
		JOINT leftLowerLeg
		{
			OFFSET 0.000004 -44.370037 0.346940
			CHANNELS 3 Xrotation Yrotation Zrotation
			JOINT leftFoot
			{
				OFFSET 0.000004 -44.423611 -3.044388
				CHANNELS 3 Xrotation Yrotation Zrotation
				JOINT leftToes
				{
					OFFSET 0.000001 -8.728690 10.710592
					CHANNELS 3 Xrotation Yrotation Zrotation
					JOINT leftToesEnd
					{
						OFFSET 0.000000 -0.000680 9.278101
						CHANNELS 3 Xrotation Yrotation Zrotation
						End Site
						{
							OFFSET 0.000000 -0.000680 9.278101
						}
					}
				}
			}
		}
	}
}
MOTION
Frames: 4
Frame Time: 0.033333
0.413967 100.914856 2.094302 -3.848792 -2.468475 -10.217456 -0.000003 10.181556 0.131524 -3.672119 -1.327746 10.340620 1.578554 -0.105516 2.612536 1.617823 -0.318585 2.555462 -0.000001 16.740351 -2.049019 5.166280 -0.384739 -6.163718 0.000000 9.617858 1.684972 -10.115695 -1.271487 0.432203 0.000000 22.037354 7.501075 -0.000001 0.000000 -0.000000 -4.569999 11.014858 -2.160838 0.583795 3.916615 12.369759 9.193192 1.384321 63.090013 -0.000008 27.890536 0.000029 16.730354 1.279573 0.205610 -2.464794 -1.573990 2.681906 -2.469558 -7.961322 -14.706582 4.211702 -22.742865 -4.094776 -2.646258 -1.527822 1.527813 -2.299842 6.597173 2.316562 -1.994613 -1.151581 1.151577 -0.000001 -0.000002 0.000003 -9.108295 -0.517867 2.259800 0.935364 -3.671406 21.908387 0.112440 -1.247900 10.296720 0.245717 -1.835636 15.247007 0.000001 0.000001 0.000002 -9.532494 0.000000 -0.000004 0.163028 -1.504614 13.437297 0.188868 -1.612751 13.357854 -3.162699 -4.823886 25.247470 -0.000000 0.000000 0.000003 -9.103599 -0.043102 -1.865106 0.496627 -2.596944 19.792587 0.130682 -1.344365 11.102723 -10.951866 -6.220783 18.545961 -0.000000 0.000001 0.000000 -8.076678 -0.486726 -3.806304 0.361246 -2.269109 14.900035 0.217044 -1.727090 14.324975 0.515164 -2.631113 22.153046 0.000001 0.000002 0.000000 4.570403 11.014686 -2.160814 0.556355 -6.275064 -11.192626 5.390215 7.719828 -78.407157 -0.000003 -21.689303 0.000005 15.300850 -6.739525 -1.843972 2.466089 -1.576229 2.681699 -3.713302 9.651981 14.316567 3.880036 7.580750 0.786043 2.647882 -1.528729 1.528749 -9.119492 3.896571 -3.155217 1.998917 -1.154095 1.154081 -0.000000 -0.000006 -0.000000 9.109294 -0.518013 2.259895 -0.144558 -0.129515 -10.695108 0.172996 1.536873 -12.845277 0.253184 1.853648 -15.555525 -0.000002 -0.000001 -0.000001 9.533399 0.000010 -0.000005 -0.016978 0.039796 -4.366192 0.210939 1.694649 -14.191010 0.300137 2.014687 -16.947009 0.000001 -0.000001 0.000002 9.104502 -0.042999 -1.865104 -0.138765 -0.118215 -10.547062 0.277319 1.938273 -16.285574 0.644753 2.914062 -24.948345 0.000002 0.000000 -0.000000 8.077805 -0.486882 -3.806308 1.124149 5.737884 -12.494840 0.186416 -2.446208 -13.962922 0.113297 1.246489 -10.387097 0.000002 -0.000002 -0.000002 -8.207801 -6.751707 -1.599543 -3.011951 -8.546897 10.059419 19.188554 -5.613122 1.032574 -10.958256 2.901982 -1.007298 -0.465668 0.000006 -0.000001 -0.000000 -0.000000 0.000000 8.207799 -6.751705 -1.599545 -14.644723 5.139535 13.220559 33.912654 7.660391 -0.783408 -16.550657 0.594229 -2.423609 0.466866 -0.000001 0.000109 -0.000000 -0.000001 0.000000 
0.409380 100.906097 2.058138 -3.867107 -2.421457 -10.229720 0.000001 10.181561 0.131525 -3.528302 -1.305085 10.344880 1.449920 -0.130297 2.610472 1.488164 -0.336378 2.556756 -0.000000 16.740368 -2.049016 5.232162 -0.382560 -6.164956 0.000000 9.617835 1.684977 -10.000030 -1.283747 0.441951 -0.000000 22.037399 7.501075 -0.000002 -0.000000 -0.000000 -4.570004 11.014890 -2.160836 0.579096 3.941058 12.406986 9.331366 1.392702 63.058239 -0.000008 27.878394 0.000012 16.679465 1.293386 0.227325 -2.464778 -1.573997 2.681911 -2.469552 -7.961328 -14.706620 4.211709 -22.742875 -4.094759 -2.646263 -1.527824 1.527816 -2.299850 6.597169 2.316548 -1.994601 -1.151578 1.151581 -0.000002 0.000000 0.000001 -9.108279 -0.517880 2.259803 0.935346 -3.671423 21.908373 0.112442 -1.247898 10.296707 0.245734 -1.835634 15.247021 0.000002 0.000004 0.000006 -9.532481 0.000004 0.000002 0.163012 -1.504625 13.437308 0.188870 -1.612754 13.357837 -3.162700 -4.823885 25.247437 -0.000003 0.000001 0.000007 -9.103594 -0.043101 -1.865104 0.496632 -2.596948 19.792577 0.130650 -1.344358 11.102726 -10.951847 -6.220787 18.545949 -0.000001 0.000001 -0.000001 -8.076674 -0.486723 -3.806299 0.361248 -2.269117 14.900022 0.217041 -1.727090 14.324978 0.515164 -2.631115 22.153053 -0.000005 0.000000 0.000003 4.570402 11.014668 -2.160812 0.554099 -6.275263 -11.213286 5.527834 7.813792 -78.401727 -0.000006 -21.650351 0.000011 15.182969 -6.755344 -1.807243 2.466095 -1.576208 2.681695 -3.713547 9.651191 14.316559 3.879799 7.580226 0.786036 2.647871 -1.528762 1.528753 -9.119493 3.895712 -3.156213 1.998909 -1.154093 1.154079 0.000002 -0.000002 -0.000000 9.109288 -0.518007 2.259899 -0.144547 -0.129516 -10.695096 0.173005 1.536874 -12.845270 0.253179 1.853651 -15.555518 -0.000000 -0.000001 -0.000004 9.533392 0.000007 -0.000001 -0.016990 0.039796 -4.366217 0.210937 1.694654 -14.191009 0.300150 2.014680 -16.946999 -0.000000 -0.000000 0.000001 9.104486 -0.042999 -1.865102 -0.138748 -0.118067 -10.547066 0.277342 1.938272 -16.285585 0.644743 2.914056 -24.948321 0.000000 0.000001 0.000002 8.077794 -0.486885 -3.806300 1.124154 5.737879 -12.494834 0.186425 -2.446212 -13.962895 0.113275 1.246480 -10.387132 0.000002 -0.000003 -0.000002 -8.207800 -6.751698 -1.599543 -3.034989 -8.548794 10.083255 19.238727 -5.666988 1.021082 -10.967063 2.901271 -0.999638 -0.465661 -0.000001 -0.000001 -0.000000 0.000000 0.000000 8.207797 -6.751697 -1.599542 -14.658711 5.099903 13.220806 33.925430 7.353070 -0.708799 -16.492556 0.582624 -2.398250 0.336790 0.000007 0.000080 -0.000000 -0.000002 0.000000 
0.406807 100.900864 2.027233 -3.888557 -2.398629 -10.235495 0.000000 10.181562 0.131525 -3.368845 -1.281159 10.349228 1.310442 -0.159308 2.608427 1.347490 -0.357852 2.558340 -0.000000 16.740368 -2.049025 5.297459 -0.375556 -6.164084 -0.000000 9.617852 1.684976 -9.871191 -1.286652 0.449488 0.000000 22.037354 7.501080 0.000001 0.000000 -0.000000 -4.570002 11.014883 -2.160842 0.577384 3.988778 12.431070 9.492989 1.405776 63.040986 -0.000011 27.882063 0.000054 16.590164 1.281758 0.278781 -2.464793 -1.573983 2.681908 -2.469563 -7.961330 -14.706625 4.211729 -22.742851 -4.094726 -2.646265 -1.527799 1.527821 -2.299851 6.597153 2.316527 -1.994606 -1.151583 1.151579 -0.000000 -0.000006 0.000003 -9.108301 -0.517882 2.259802 0.935341 -3.671426 21.908382 0.112446 -1.247894 10.296736 0.245718 -1.835635 15.247014 0.000001 0.000001 0.000000 -9.532489 0.000019 -0.000001 0.163054 -1.504777 13.438726 0.188887 -1.612766 13.357850 -3.162732 -4.823888 25.247453 -0.000003 0.000003 0.000004 -9.103591 -0.043099 -1.865103 0.496631 -2.596944 19.792604 0.130670 -1.344358 11.102689 -10.951860 -6.220781 18.545932 -0.000001 -0.000001 -0.000001 -8.076680 -0.486724 -3.806299 0.361245 -2.269119 14.900020 0.217051 -1.727096 14.324973 0.515170 -2.631117 22.153051 -0.000000 0.000001 -0.000000 4.570406 11.014668 -2.160817 0.553563 -6.273682 -11.221173 5.660832 7.927480 -78.436369 0.000007 -21.574061 0.000025 15.109417 -6.792675 -1.724895 2.466093 -1.576204 2.681697 -3.714180 9.649616 14.316559 3.880662 7.579007 0.786150 2.647899 -1.528750 1.528745 -9.119127 3.897024 -3.157066 1.998902 -1.154079 1.154076 -0.000002 0.000000 0.000003 9.109290 -0.518013 2.259902 -0.144553 -0.129521 -10.695109 0.172983 1.536866 -12.845267 0.253477 1.854703 -15.564623 -0.000001 -0.000001 -0.000004 9.533388 0.000005 0.000001 -0.017004 0.039791 -4.366227 0.210960 1.694646 -14.191036 0.300283 2.015176 -16.951368 0.000000 0.000001 -0.000001 9.104499 -0.042993 -1.865102 -0.138560 -0.116959 -10.546913 0.277347 1.938274 -16.285567 0.644741 2.914065 -24.948352 0.000002 -0.000001 -0.000002 8.077791 -0.486897 -3.806300 1.124132 5.737874 -12.494843 0.186553 -2.445751 -13.966846 0.113504 1.247760 -10.397880 0.000001 0.000000 0.000002 -8.207798 -6.751710 -1.599543 -3.049727 -8.538665 10.096006 19.274990 -5.709008 1.014967 -10.969457 2.900792 -0.994989 -0.465666 0.000001 0.000003 0.000000 0.000001 0.000000 8.207799 -6.751699 -1.599543 -14.665632 5.088384 13.226173 33.941652 7.182550 -0.676804 -16.476967 0.577642 -2.377325 0.306088 0.000005 0.000070 0.000000 -0.000000 0.000000 
0.400724 100.896683 1.998437 -3.912995 -2.402773 -10.244723 0.000002 10.181540 0.131523 -3.195525 -1.256274 10.353784 1.166304 -0.192535 2.606372 1.201972 -0.383044 2.560068 0.000000 16.740362 -2.049019 5.351083 -0.362429 -6.162675 0.000000 9.617846 1.684981 -9.739006 -1.269979 0.474419 -0.000000 22.037415 7.501070 0.000003 -0.000000 -0.000000 -4.569996 11.014877 -2.160839 0.577554 4.025084 12.427974 9.645485 1.431669 63.049360 0.000003 27.862964 0.000027 16.535393 1.307147 0.297905 -2.464793 -1.573987 2.681909 -2.469566 -7.961332 -14.706613 4.211724 -22.742867 -4.094747 -2.646261 -1.527810 1.527819 -2.299846 6.597169 2.316544 -1.994597 -1.151585 1.151572 -0.000002 -0.000003 -0.000000 -9.108309 -0.517883 2.259803 0.935339 -3.671431 21.908399 0.112423 -1.247884 10.296710 0.245866 -1.836137 15.251336 -0.000001 0.000002 0.000005 -9.532496 0.000004 -0.000001 0.163165 -1.505299 13.443009 0.188866 -1.612760 13.357844 -3.162300 -4.824725 25.252152 -0.000001 0.000002 0.000004 -9.103596 -0.043107 -1.865100 0.496863 -2.597546 19.797872 0.130671 -1.344363 11.102736 -10.951859 -6.220781 18.545965 -0.000003 0.000000 -0.000000 -8.076694 -0.486725 -3.806297 0.361233 -2.269133 14.900017 0.217051 -1.727085 14.324971 0.515181 -2.631131 22.153056 0.000001 0.000001 -0.000002 4.570404 11.014685 -2.160813 0.559293 -6.250879 -11.209605 5.797929 8.016333 -78.476886 -0.000011 -21.503230 -0.000003 15.035077 -6.852218 -1.672265 2.466093 -1.576194 2.681701 -3.714967 9.648359 14.316758 3.882538 7.577955 0.786435 2.647884 -1.528748 1.528752 -9.117958 3.906148 -3.154397 1.998902 -1.154091 1.154076 -0.000001 -0.000001 -0.000000 9.109292 -0.518010 2.259903 -0.144563 -0.128998 -10.699281 0.173252 1.538012 -12.854872 0.253963 1.856444 -15.579694 -0.000000 -0.000003 -0.000003 9.533401 0.000001 0.000001 -0.016993 0.040329 -4.370687 0.211192 1.695702 -14.200020 0.300751 2.016621 -16.963811 0.000002 -0.000001 -0.000001 9.104493 -0.042997 -1.865100 -0.138321 -0.114506 -10.555858 0.277537 1.938885 -16.290923 0.644955 2.914521 -24.952672 0.000000 0.000001 0.000004 8.077797 -0.486901 -3.806300 1.124141 5.737876 -12.494840 0.186866 -2.444447 -13.978049 0.113903 1.249865 -10.415674 -0.000001 -0.000005 -0.000001 -8.207798 -6.751701 -1.599544 -3.058179 -8.525339 10.115009 19.302700 -5.719424 1.003109 -10.967014 2.900787 -0.995083 -0.465653 -0.000003 0.000000 -0.000000 0.000001 -0.000000 8.207800 -6.751711 -1.599544 -14.673459 5.099529 13.248460 33.964598 7.132658 -0.676080 -16.473400 0.577213 -2.368790 0.305662 0.000009 0.000067 -0.000000 0.000001 0.000000 
